<mxfile host="app.diagrams.net" modified="2023-07-29T12:14:54.875Z" agent="Mozilla/5.0 (X11; Linux x86_64) AppleWebKit/537.36 (KHTML, like Gecko) Chrome/115.0.0.0 Safari/537.36" version="21.6.5" etag="fhjI-hMXX3aFlpM11vYT" type="github">
  <diagram name="Page-1" id="M7sMlCkAyzhsnm4yxjYu">
    <mxGraphModel>
      <root>
        <mxCell id="0" />
        <mxCell id="1" parent="0" />
      </root>
    </mxGraphModel>
  </diagram>
</mxfile>
